{
  "accessors": [
    {
      "bufferView": 2,
      "componentType": 5126,
      "count": 65532,
      "max": [
        5.116178035736084,
        6.7012600898742676,
        5.2384610176086426
      ],
      "min": [
        -6.1655211448669434,
        -6.7012600898742676,
        -5.2384610176086426
      ],
      "type": "VEC3"
    },
    {
      "bufferView": 2,
      "byteOffset": 786384,
      "componentType": 5126,
      "count": 65532,
      "max": [
        0.99997240304946899,
        0.99999529123306274,
        0.99999809265136719
      ],
      "min": [
        -0.99996751546859741,
        -0.99958038330078125,
        -0.9998544454574585
      ],
      "type": "VEC3"
    },
    {
      "bufferView": 3,
      "componentType": 5126,
      "count": 65532,
      "max": [
        0.99999994039535522,
        0.99997472763061523,
        0.99986523389816284,
        1
      ],
      "min": [
        -0.99999922513961792,
        -0.99998623132705688,
        -0.9990999698638916,
        -1
      ],
      "type": "VEC4"
    },
    {
      "bufferView": 1,
      "componentType": 5126,
      "count": 65532,
      "max": [
        0.99707698822021484,
        0.99967002868652344
      ],
      "min": [
        0.0030489999335259199,
        0.039335999637842178
      ],
      "type": "VEC2"
    },
    {
      "bufferView": 0,
      "componentType": 5125,
      "count": 298686,
      "max": [
        65531
      ],
      "min": [
        0
      ],
      "type": "SCALAR"
    },
    {
      "bufferView": 2,
      "byteOffset": 1572768,
      "componentType": 5126,
      "count": 65532,
      "max": [
        4.4142451286315918,
        5.0387511253356934,
        3.3575289249420166
      ],
      "min": [
        -4.3295087814331055,
        -6.7012600898742676,
        -4.9942097663879395
      ],
      "type": "VEC3"
    },
    {
      "bufferView": 2,
      "byteOffset": 2359152,
      "componentType": 5126,
      "count": 65532,
      "max": [
        0.99999916553497314,
        0.99999529123306274,
        0.99998068809509277
      ],
      "min": [
        -0.99994093179702759,
        -0.9994208812713623,
        -0.99934506416320801
      ],
      "type": "VEC3"
    },
    {
      "bufferView": 3,
      "byteOffset": 1048512,
      "componentType": 5126,
      "count": 65532,
      "max": [
        0.99999994039535522,
        0.99996018409729004,
        0.99986720085144043,
        1
      ],
      "min": [
        -0.99997895956039429,
        -0.99997645616531372,
        -0.99997884035110474,
        -1
      ],
      "type": "VEC4"
    },
    {
      "bufferView": 1,
      "byteOffset": 524256,
      "componentType": 5126,
      "count": 65532,
      "max": [
        0.99724602699279785,
        0.99927997589111328
      ],
      "min": [
        0.0003800000122282654,
        0.026232000440359116
      ],
      "type": "VEC2"
    },
    {
      "bufferView": 0,
      "byteOffset": 1194744,
      "componentType": 5125,
      "count": 311457,
      "max": [
        65531
      ],
      "min": [
        0
      ],
      "type": "SCALAR"
    },
    {
      "bufferView": 2,
      "byteOffset": 3145536,
      "componentType": 5126,
      "count": 65532,
      "max": [
        4.5475850105285645,
        5.1353111267089844,
        2.9209311008453369
      ],
      "min": [
        -5.0766901969909668,
        -6.6880998611450195,
        -4.9211602210998535
      ],
      "type": "VEC3"
    },
    {
      "bufferView": 2,
      "byteOffset": 3931920,
      "componentType": 5126,
      "count": 65532,
      "max": [
        0.99999618530273438,
        0.99996596574783325,
        0.99999940395355225
      ],
      "min": [
        -0.99998033046722412,
        -0.99969702959060669,
        -0.9999539852142334
      ],
      "type": "VEC3"
    },
    {
      "bufferView": 3,
      "byteOffset": 2097024,
      "componentType": 5126,
      "count": 65532,
      "max": [
        0.99999761581420898,
        0.99998414516448975,
        0.99995851516723633,
        1
      ],
      "min": [
        -0.99999517202377319,
        -0.99999767541885376,
        -0.99998682737350464,
        -1
      ],
      "type": "VEC4"
    },
    {
      "bufferView": 1,
      "byteOffset": 1048512,
      "componentType": 5126,
      "count": 65532,
      "max": [
        0.99688500165939331,
        0.99801701307296753
      ],
      "min": [
        0.014014000073075294,
        0.003886000020429492
      ],
      "type": "VEC2"
    },
    {
      "bufferView": 0,
      "byteOffset": 2440572,
      "componentType": 5125,
      "count": 312513,
      "max": [
        65531
      ],
      "min": [
        0
      ],
      "type": "SCALAR"
    },
    {
      "bufferView": 2,
      "byteOffset": 4718304,
      "componentType": 5126,
      "count": 65532,
      "max": [
        4.2441749572753906,
        5.128878116607666,
        3.4610359668731689
      ],
      "min": [
        -5.1816377639770508,
        -6.6511020660400391,
        -4.8881378173828125
      ],
      "type": "VEC3"
    },
    {
      "bufferView": 2,
      "byteOffset": 5504688,
      "componentType": 5126,
      "count": 65532,
      "max": [
        0.99996381998062134,
        0.99997496604919434,
        0.99998128414154053
      ],
      "min": [
        -0.9999847412109375,
        -0.99883139133453369,
        -0.9982791543006897
      ],
      "type": "VEC3"
    },
    {
      "bufferView": 3,
      "byteOffset": 3145536,
      "componentType": 5126,
      "count": 65532,
      "max": [
        0.99999773502349854,
        0.99998414516448975,
        0.99977678060531616,
        1
      ],
      "min": [
        -0.99999481439590454,
        -0.99999433755874634,
        -0.99970340728759766,
        -1
      ],
      "type": "VEC4"
    },
    {
      "bufferView": 1,
      "byteOffset": 1572768,
      "componentType": 5126,
      "count": 65532,
      "max": [
        0.99637001752853394,
        0.99841797351837158
      ],
      "min": [
        0.013159000314772129,
        0.0069920001551508904
      ],
      "type": "VEC2"
    },
    {
      "bufferView": 0,
      "byteOffset": 3690624,
      "componentType": 5125,
      "count": 296613,
      "max": [
        65531
      ],
      "min": [
        0
      ],
      "type": "SCALAR"
    },
    {
      "bufferView": 2,
      "byteOffset": 6291072,
      "componentType": 5126,
      "count": 65532,
      "max": [
        4.3107790946960449,
        5.2546839714050293,
        3.6614639759063721
      ],
      "min": [
        -5.4475541114807129,
        -6.6398830413818359,
        -4.7562599182128906
      ],
      "type": "VEC3"
    },
    {
      "bufferView": 2,
      "byteOffset": 7077456,
      "componentType": 5126,
      "count": 65532,
      "max": [
        0.99999505281448364,
        0.9999961256980896,
        0.99994701147079468
      ],
      "min": [
        -0.99998879432678223,
        -0.99958038330078125,
        -0.99854296445846558
      ],
      "type": "VEC3"
    },
    {
      "bufferView": 3,
      "byteOffset": 4194048,
      "componentType": 5126,
      "count": 65532,
      "max": [
        0.99999040365219116,
        0.99997031688690186,
        0.9999510645866394,
        1
      ],
      "min": [
        -0.99996483325958252,
        -0.99998581409454346,
        -0.9999961256980896,
        -1
      ],
      "type": "VEC4"
    },
    {
      "bufferView": 1,
      "byteOffset": 2097024,
      "componentType": 5126,
      "count": 65532,
      "max": [
        0.99688500165939331,
        0.99896198511123657
      ],
      "min": [
        0.011723999865353107,
        0.0037350000347942114
      ],
      "type": "VEC2"
    },
    {
      "bufferView": 0,
      "byteOffset": 4877076,
      "componentType": 5125,
      "count": 269532,
      "max": [
        65531
      ],
      "min": [
        0
      ],
      "type": "SCALAR"
    },
    {
      "bufferView": 2,
      "byteOffset": 7863840,
      "componentType": 5126,
      "count": 65532,
      "max": [
        4.7739667892456055,
        5.9069209098815918,
        3.6179440021514893
      ],
      "min": [
        -5.5567989349365234,
        -6.5681910514831543,
        -4.0639309883117676
      ],
      "type": "VEC3"
    },
    {
      "bufferView": 2,
      "byteOffset": 8650224,
      "componentType": 5126,
      "count": 65532,
      "max": [
        0.99999946355819702,
        0.9999690055847168,
        0.9999966025352478
      ],
      "min": [
        -0.99999159574508667,
        -0.99936461448669434,
        -0.99915313720703125
      ],
      "type": "VEC3"
    },
    {
      "bufferView": 3,
      "byteOffset": 5242560,
      "componentType": 5126,
      "count": 65532,
      "max": [
        0.99999439716339111,
        0.99998080730438232,
        0.99997687339782715,
        1
      ],
      "min": [
        -0.99994271993637085,
        -0.99992215633392334,
        -0.99999403953552246,
        -1
      ],
      "type": "VEC4"
    },
    {
      "bufferView": 1,
      "byteOffset": 2621280,
      "componentType": 5126,
      "count": 65532,
      "max": [
        0.99648201465606689,
        1
      ],
      "min": [
        0.0032709999941289425,
        0.0036520001012831926
      ],
      "type": "VEC2"
    },
    {
      "bufferView": 0,
      "byteOffset": 5955204,
      "componentType": 5125,
      "count": 265875,
      "max": [
        65531
      ],
      "min": [
        0
      ],
      "type": "SCALAR"
    },
    {
      "bufferView": 2,
      "byteOffset": 9436608,
      "componentType": 5126,
      "count": 65532,
      "max": [
        4.7573599815368652,
        5.8343791961669922,
        4.2700247764587402
      ],
      "min": [
        -5.5549421310424805,
        -6.5295071601867676,
        -3.8924009799957275
      ],
      "type": "VEC3"
    },
    {
      "bufferView": 2,
      "byteOffset": 10222992,
      "componentType": 5126,
      "count": 65532,
      "max": [
        0.99995958805084229,
        0.99991714954376221,
        0.9999966025352478
      ],
      "min": [
        -0.99997907876968384,
        -0.99964731931686401,
        -0.99984842538833618
      ],
      "type": "VEC3"
    },
    {
      "bufferView": 3,
      "byteOffset": 6291072,
      "componentType": 5126,
      "count": 65532,
      "max": [
        0.99990105628967285,
        0.9999426007270813,
        0.99995005130767822,
        1
      ],
      "min": [
        -0.99999105930328369,
        -0.99999475479125977,
        -0.99999535083770752,
        -1
      ],
      "type": "VEC4"
    },
    {
      "bufferView": 1,
      "byteOffset": 3145536,
      "componentType": 5126,
      "count": 65532,
      "max": [
        0.99795401096343994,
        0.99973499774932861
      ],
      "min": [
        0.0032259998843073845,
        0.0039450000040233135
      ],
      "type": "VEC2"
    },
    {
      "bufferView": 0,
      "byteOffset": 7018704,
      "componentType": 5125,
      "count": 292206,
      "max": [
        65531
      ],
      "min": [
        0
      ],
      "type": "SCALAR"
    },
    {
      "bufferView": 2,
      "byteOffset": 11009376,
      "componentType": 5126,
      "count": 65532,
      "max": [
        4.8485851287841797,
        5.574364185333252,
        4.8758010864257812
      ],
      "min": [
        -5.4896049499511719,
        -6.4772529602050781,
        -3.7813630104064941
      ],
      "type": "VEC3"
    },
    {
      "bufferView": 2,
      "byteOffset": 11795760,
      "componentType": 5126,
      "count": 65532,
      "max": [
        0.99999701976776123,
        0.99977833032608032,
        0.99997782707214355
      ],
      "min": [
        -0.99999731779098511,
        -0.99996137619018555,
        -0.99794870615005493
      ],
      "type": "VEC3"
    },
    {
      "bufferView": 3,
      "byteOffset": 7339584,
      "componentType": 5126,
      "count": 65532,
      "max": [
        0.99997377395629883,
        0.99803000688552856,
        0.9997219443321228,
        1
      ],
      "min": [
        -0.99996453523635864,
        -0.99963724613189697,
        -0.99999737739562988,
        -1
      ],
      "type": "VEC4"
    },
    {
      "bufferView": 1,
      "byteOffset": 3669792,
      "componentType": 5126,
      "count": 65532,
      "max": [
        0.99749302864074707,
        0.99985498189926147
      ],
      "min": [
        0.0034419998992234468,
        0.0043440000154078007
      ],
      "type": "VEC2"
    },
    {
      "bufferView": 0,
      "byteOffset": 8187528,
      "componentType": 5125,
      "count": 311847,
      "max": [
        65531
      ],
      "min": [
        0
      ],
      "type": "SCALAR"
    },
    {
      "bufferView": 2,
      "byteOffset": 12582144,
      "componentType": 5126,
      "count": 65532,
      "max": [
        4.8598241806030273,
        5.3322901725769043,
        4.7547450065612793
      ],
      "min": [
        -6.1902189254760742,
        -6.291715145111084,
        -3.3996419906616211
      ],
      "type": "VEC3"
    },
    {
      "bufferView": 2,
      "byteOffset": 13368528,
      "componentType": 5126,
      "count": 65532,
      "max": [
        0.99999397993087769,
        0.99979591369628906,
        0.99995511770248413
      ],
      "min": [
        -0.99999147653579712,
        -0.99788272380828857,
        -0.99235320091247559
      ],
      "type": "VEC3"
    },
    {
      "bufferView": 3,
      "byteOffset": 8388096,
      "componentType": 5126,
      "count": 65532,
      "max": [
        0.99999552965164185,
        0.99994230270385742,
        0.99999415874481201,
        1
      ],
      "min": [
        -0.99999666213989258,
        -0.99845767021179199,
        -0.99999678134918213,
        -1
      ],
      "type": "VEC4"
    },
    {
      "bufferView": 1,
      "byteOffset": 4194048,
      "componentType": 5126,
      "count": 65532,
      "max": [
        0.99774998426437378,
        0.99955600500106812
      ],
      "min": [
        0.00045200000749900937,
        0.0042920000851154327
      ],
      "type": "VEC2"
    },
    {
      "bufferView": 0,
      "byteOffset": 9434916,
      "componentType": 5125,
      "count": 292584,
      "max": [
        65531
      ],
      "min": [
        0
      ],
      "type": "SCALAR"
    },
    {
      "bufferView": 2,
      "byteOffset": 14154912,
      "componentType": 5126,
      "count": 65532,
      "max": [
        6.1902189254760742,
        6.2698330879211426,
        4.8912339210510254
      ],
      "min": [
        -6.1692237854003906,
        -6.0426797866821289,
        -3.2374980449676514
      ],
      "type": "VEC3"
    },
    {
      "bufferView": 2,
      "byteOffset": 14941296,
      "componentType": 5126,
      "count": 65532,
      "max": [
        0.99988192319869995,
        0.99998068809509277,
        0.99999010562896729
      ],
      "min": [
        -0.99997919797897339,
        -0.9984775185585022,
        -0.99970698356628418
      ],
      "type": "VEC3"
    },
    {
      "bufferView": 3,
      "byteOffset": 9436608,
      "componentType": 5126,
      "count": 65532,
      "max": [
        0.99999529123306274,
        0.9996190071105957,
        0.99991542100906372,
        1
      ],
      "min": [
        -0.99999785423278809,
        -0.99991542100906372,
        -0.99999737739562988,
        -1
      ],
      "type": "VEC4"
    },
    {
      "bufferView": 1,
      "byteOffset": 4718304,
      "componentType": 5126,
      "count": 65532,
      "max": [
        0.99800997972488403,
        1.0000549554824829
      ],
      "min": [
        0.0028540000785142183,
        0.0035989999305456877
      ],
      "type": "VEC2"
    },
    {
      "bufferView": 0,
      "byteOffset": 10605252,
      "componentType": 5125,
      "count": 272640,
      "max": [
        65531
      ],
      "min": [
        0
      ],
      "type": "SCALAR"
    },
    {
      "bufferView": 2,
      "byteOffset": 15727680,
      "componentType": 5126,
      "count": 20603,
      "max": [
        6.1740918159484863,
        5.9651370048522949,
        4.8935489654541016
      ],
      "min": [
        -6.1537361145019531,
        -5.7691478729248047,
        -3.0186240673065186
      ],
      "type": "VEC3"
    },
    {
      "bufferView": 2,
      "byteOffset": 15974916,
      "componentType": 5126,
      "count": 20603,
      "max": [
        0.99883532524108887,
        0.99992811679840088,
        0.99960136413574219
      ],
      "min": [
        -0.99998712539672852,
        -0.99972355365753174,
        -0.99986672401428223
      ],
      "type": "VEC3"
    },
    {
      "bufferView": 3,
      "byteOffset": 10485120,
      "componentType": 5126,
      "count": 20603,
      "max": [
        0.99994736909866333,
        0.99982082843780518,
        0.99853593111038208,
        1
      ],
      "min": [
        -0.99999904632568359,
        -0.99998217821121216,
        -0.99997067451477051,
        -1
      ],
      "type": "VEC4"
    },
    {
      "bufferView": 1,
      "byteOffset": 5242560,
      "componentType": 5126,
      "count": 20603,
      "max": [
        0.99454802274703979,
        0.99968999624252319
      ],
      "min": [
        0.0031890000682324171,
        0.0087839998304843903
      ],
      "type": "VEC2"
    },
    {
      "bufferView": 0,
      "byteOffset": 11695812,
      "componentType": 5125,
      "count": 76044,
      "max": [
        20602
      ],
      "min": [
        0
      ],
      "type": "SCALAR"
    }
  ],
  "asset": {
    "extras": {
      "author": "Archéomatique (https://sketchfab.com/archeomatique)",
      "license": "CC-BY-NC-4.0 (http://creativecommons.org/licenses/by-nc/4.0/)",
      "source": "https://sketchfab.com/models/7842488a9f344084bfeaf2421c3e028e",
      "title": "Cathédrale Saint-Pierre, Poitiers (86)"
    },
    "generator": "Sketchfab-3.18.7",
    "version": "2.0"
  },
  "bufferViews": [
    {
      "buffer": 0,
      "byteLength": 11999988,
      "byteOffset": 0,
      "name": "floatBufferViews",
      "target": 34963
    },
    {
      "buffer": 0,
      "byteLength": 5407384,
      "byteOffset": 11999988,
      "byteStride": 8,
      "name": "floatBufferViews",
      "target": 34962
    },
    {
      "buffer": 0,
      "byteLength": 16222152,
      "byteOffset": 17407372,
      "byteStride": 12,
      "name": "floatBufferViews",
      "target": 34962
    },
    {
      "buffer": 0,
      "byteLength": 10814768,
      "byteOffset": 33629524,
      "byteStride": 16,
      "name": "floatBufferViews",
      "target": 34962
    }
  ],
  "buffers": [
    {
      "byteLength": 44444292,
      "uri": "scene.bin"
    }
  ],
  "extensionsUsed": [
    "KHR_materials_unlit"
  ],
  "images": [
    {
      "uri": "textures/model_baseColor.jpeg"
    }
  ],
  "materials": [
    {
      "doubleSided": true,
      "emissiveFactor": [
        0,
        0,
        0
      ],
      "extensions": {
        "KHR_materials_unlit": {}
      },
      "name": "model",
      "pbrMetallicRoughness": {
        "baseColorFactor": [
          1,
          1,
          1,
          1
        ],
        "baseColorTexture": {
          "index": 0,
          "texCoord": 0
        },
        "metallicFactor": 0,
        "roughnessFactor": 1
      }
    }
  ],
  "meshes": [
    {
      "primitives": [
        {
          "attributes": {
            "NORMAL": 1,
            "POSITION": 0,
            "TANGENT": 2,
            "TEXCOORD_0": 3
          },
          "indices": 4,
          "material": 0,
          "mode": 4
        }
      ]
    },
    {
      "primitives": [
        {
          "attributes": {
            "NORMAL": 6,
            "POSITION": 5,
            "TANGENT": 7,
            "TEXCOORD_0": 8
          },
          "indices": 9,
          "material": 0,
          "mode": 4
        }
      ]
    },
    {
      "primitives": [
        {
          "attributes": {
            "NORMAL": 11,
            "POSITION": 10,
            "TANGENT": 12,
            "TEXCOORD_0": 13
          },
          "indices": 14,
          "material": 0,
          "mode": 4
        }
      ]
    },
    {
      "primitives": [
        {
          "attributes": {
            "NORMAL": 16,
            "POSITION": 15,
            "TANGENT": 17,
            "TEXCOORD_0": 18
          },
          "indices": 19,
          "material": 0,
          "mode": 4
        }
      ]
    },
    {
      "primitives": [
        {
          "attributes": {
            "NORMAL": 21,
            "POSITION": 20,
            "TANGENT": 22,
            "TEXCOORD_0": 23
          },
          "indices": 24,
          "material": 0,
          "mode": 4
        }
      ]
    },
    {
      "primitives": [
        {
          "attributes": {
            "NORMAL": 26,
            "POSITION": 25,
            "TANGENT": 27,
            "TEXCOORD_0": 28
          },
          "indices": 29,
          "material": 0,
          "mode": 4
        }
      ]
    },
    {
      "primitives": [
        {
          "attributes": {
            "NORMAL": 31,
            "POSITION": 30,
            "TANGENT": 32,
            "TEXCOORD_0": 33
          },
          "indices": 34,
          "material": 0,
          "mode": 4
        }
      ]
    },
    {
      "primitives": [
        {
          "attributes": {
            "NORMAL": 36,
            "POSITION": 35,
            "TANGENT": 37,
            "TEXCOORD_0": 38
          },
          "indices": 39,
          "material": 0,
          "mode": 4
        }
      ]
    },
    {
      "primitives": [
        {
          "attributes": {
            "NORMAL": 41,
            "POSITION": 40,
            "TANGENT": 42,
            "TEXCOORD_0": 43
          },
          "indices": 44,
          "material": 0,
          "mode": 4
        }
      ]
    },
    {
      "primitives": [
        {
          "attributes": {
            "NORMAL": 46,
            "POSITION": 45,
            "TANGENT": 47,
            "TEXCOORD_0": 48
          },
          "indices": 49,
          "material": 0,
          "mode": 4
        }
      ]
    },
    {
      "primitives": [
        {
          "attributes": {
            "NORMAL": 51,
            "POSITION": 50,
            "TANGENT": 52,
            "TEXCOORD_0": 53
          },
          "indices": 54,
          "material": 0,
          "mode": 4
        }
      ]
    }
  ],
  "nodes": [
    {
      "children": [
        1
      ],
      "name": "RootNode (gltf orientation matrix)",
      "rotation": [
        -0.70710678118654746,
        -0,
        -0,
        0.70710678118654757
      ]
    },
    {
      "children": [
        2
      ],
      "matrix": [
        0.96234869956970215,
        -0.26341730356216431,
        -0.06705436110496521,
        0,
        -0.065064117312431335,
        -0.46275216341018677,
        0.88409680128097534,
        0,
        -0.26391592621803284,
        -0.84644657373428345,
        -0.46246796846389771,
        0,
        0.012430972419679165,
        -0.034988533705472946,
        0.14318013191223145,
        1
      ],
      "name": "RootNode (model correction matrix)"
    },
    {
      "children": [
        3,
        4,
        5,
        6,
        7,
        8,
        9,
        10,
        11,
        12,
        13
      ],
      "name": "model.obj.cleaner.materialmerger.gles"
    },
    {
      "mesh": 0,
      "name": ""
    },
    {
      "mesh": 1,
      "name": ""
    },
    {
      "mesh": 2,
      "name": ""
    },
    {
      "mesh": 3,
      "name": ""
    },
    {
      "mesh": 4,
      "name": ""
    },
    {
      "mesh": 5,
      "name": ""
    },
    {
      "mesh": 6,
      "name": ""
    },
    {
      "mesh": 7,
      "name": ""
    },
    {
      "mesh": 8,
      "name": ""
    },
    {
      "mesh": 9,
      "name": ""
    },
    {
      "mesh": 10,
      "name": ""
    }
  ],
  "samplers": [
    {
      "magFilter": 9729,
      "minFilter": 9987,
      "wrapS": 10497,
      "wrapT": 10497
    }
  ],
  "scene": 0,
  "scenes": [
    {
      "name": "OSG_Scene",
      "nodes": [
        0
      ]
    }
  ],
  "textures": [
    {
      "sampler": 0,
      "source": 0
    }
  ]
}

